<?xml version="1.0" encoding="UTF-8"?>
<svg xmlns="http://www.w3.org/2000/svg" xmlns:xlink="http://www.w3.org/1999/xlink" width="512px" height="776px" viewBox="0 0 512 776" version="1.1">
<defs>
<linearGradient id="linear0" gradientUnits="userSpaceOnUse" x1="34.213299" y1="87.454697" x2="85.010101" y2="2.00894" gradientTransform="matrix(5.17189,0,0,5.173506,-131.689851,0.000000000000073517)">
<stop offset="0" style="stop-color:rgb(97.254902%,40.784314%,18.431373%);stop-opacity:1;"/>
<stop offset="1" style="stop-color:rgb(86.666667%,17.254902%,0%);stop-opacity:1;"/>
</linearGradient>
<linearGradient id="linear1" gradientUnits="userSpaceOnUse" x1="81.756897" y1="63.624199" x2="75.948097" y2="165.559006" gradientTransform="matrix(5.17189,0,0,5.173506,-131.689851,0.000000000000073517)">
<stop offset="0" style="stop-color:rgb(97.254902%,40.784314%,18.431373%);stop-opacity:1;"/>
<stop offset="0.566586" style="stop-color:rgb(91.37255%,16.470589%,30.588236%);stop-opacity:1;"/>
<stop offset="1" style="stop-color:rgb(76.862746%,27.843139%,100%);stop-opacity:1;"/>
</linearGradient>
</defs>
<g id="surface1">
<path style=" stroke:none;fill-rule:nonzero;fill:rgb(100%,76.862746%,0%);fill-opacity:1;" d="M 365.117188 292.792969 C 369.925781 293.101562 376.632812 294.933594 384.492188 296.074219 L 464.277344 347.644531 L 203.449219 502.828125 C 199.527344 504.25 194.898438 505.753906 189.609375 507.105469 C 182.964844 508.8125 176.785156 509.90625 171.222656 510.613281 C 166.976562 511.085938 161.199219 511.570312 154.351562 511.628906 L 54.164062 392.105469 L 264.46875 310.445312 C 264.441406 310.472656 264.402344 310.5 264.359375 310.527344 C 285.875 302.449219 304.585938 298.320312 318.304688 296.074219 C 333.523438 293.582031 348.460938 291.257812 365.140625 292.796875 C 365.136719 292.796875 365.125 292.792969 365.117188 292.792969 C 365.078125 292.785156 365.027344 292.785156 364.992188 292.785156 C 365.035156 292.785156 365.074219 292.789062 365.117188 292.792969 Z M 365.117188 292.792969 "/>
<path style=" stroke:none;fill-rule:nonzero;fill:url(#linear0);" d="M 360.265625 94.480469 C 358.597656 86.96875 356.503906 80 354.148438 73.582031 C 349.96875 62.011719 340.59375 36.878906 317.644531 14.171875 C 313.4375 10 307.902344 5.046875 300.882812 0 C 272.847656 33.753906 247.699219 58.113281 231.070312 73.273438 C 187.4375 113.035156 116.015625 168.210938 70.148438 209.746094 C 62.195312 216.945312 46.027344 233.226562 31.429688 258.007812 C 31.402344 258.046875 31.375 258.089844 31.347656 258.144531 C 31.347656 258.144531 31.347656 258.117188 31.347656 258.101562 C 28.707031 262.652344 25.476562 268.535156 22.105469 275.589844 C 21.605469 276.605469 21.09375 277.726562 20.539062 278.917969 C 19.117188 281.988281 17.683594 285.25 16.261719 288.703125 C 10.539062 302.628906 3.53125 320.058594 1.230469 343.257812 C -0.785156 363.488281 1.621094 379.527344 2.910156 386.484375 C 3.382812 389.027344 3.921875 391.503906 4.503906 393.957031 C 6.519531 402.671875 9.308594 410.804688 12.609375 418.339844 C 28.328125 454.816406 54.226562 475.929688 58.597656 479.394531 C 86.210938 501.222656 114.121094 507.449219 123.023438 509.152344 C 135.648438 511.5625 146.484375 511.886719 154.304688 511.671875 C 154.304688 511.644531 154.289062 511.601562 154.277344 511.578125 C 154.316406 511.578125 154.359375 511.578125 154.386719 511.578125 C 154.332031 511.507812 154.277344 511.425781 154.222656 511.359375 C 152.652344 505.59375 150.773438 497.203125 149.867188 486.945312 C 146.765625 451.757812 157.941406 424.648438 163.667969 411.15625 C 167.996094 400.964844 178.617188 377.035156 201.25 355.273438 C 211.804688 345.125 223.222656 336.9375 234.546875 329.507812 C 246.832031 321.441406 257.574219 315.160156 263.703125 310.910156 C 263.90625 310.789062 263.5 311.03125 263.703125 310.910156 C 263.933594 310.761719 264.3125 310.519531 264.503906 310.371094 C 286.015625 294.453125 328.253906 258.550781 350.292969 200.707031 C 352.890625 193.925781 354.90625 187.265625 354.90625 187.265625 C 361.820312 165.679688 368.625 132.320312 360.238281 94.453125 Z M 360.265625 94.480469 "/>
<path style=" stroke:none;fill-rule:nonzero;fill:rgb(100%,56.862748%,0%);fill-opacity:1;" d="M 154.234375 511.773438 C 146.417969 511.988281 135.566406 511.664062 122.957031 509.253906 C 114.054688 507.550781 86.140625 501.324219 58.527344 479.492188 C 53.007812 475.125 13.152344 442.628906 2.828125 386.585938 C 1.542969 379.628906 -0.867188 363.589844 1.148438 343.355469 C 3.464844 320.160156 10.457031 302.742188 16.179688 288.804688 C 21.550781 275.71875 27.113281 265.335938 31.265625 258.191406 C 33.039062 263.144531 35.972656 270.113281 40.832031 277.707031 C 51.65625 294.636719 64.929688 303.648438 75.222656 310.417969 C 79.703125 313.355469 100.617188 326.78125 132.277344 333.832031 C 153.722656 338.609375 170.660156 338.363281 176.398438 338.175781 C 189.265625 337.769531 209.707031 335.671875 232.882812 326.671875 C 246.277344 321.472656 257.085938 315.085938 264.257812 310.609375 C 258.117188 314.871094 246.777344 321.527344 234.492188 329.582031 C 223.167969 337.011719 211.75 345.199219 201.199219 355.347656 C 178.5625 377.113281 167.941406 401.039062 163.613281 411.230469 C 157.875 424.710938 146.714844 451.832031 149.8125 487.019531 C 150.734375 497.453125 152.667969 505.964844 154.25 511.730469 Z M 154.234375 511.773438 "/>
<path style=" stroke:none;fill-rule:nonzero;fill:url(#linear1);" d="M 494.316406 500.613281 C 503.894531 481.4375 508.089844 461.203125 508.089844 461.203125 C 509.152344 456.046875 510.683594 448.441406 511.363281 438.980469 C 511.972656 430.507812 511.578125 416.71875 509.546875 405.671875 C 503.082031 370.621094 476.265625 342.226562 473.503906 339.371094 C 473.503906 339.371094 455.402344 320.601562 428.734375 307.730469 C 424.824219 305.847656 418.085938 302.574219 408.683594 299.71875 C 399.433594 296.902344 391.882812 295.78125 384.398438 294.699219 C 376.46875 293.546875 369.789062 292.992188 364.972656 292.707031 C 366.109375 292.828125 367.691406 293.058594 369.546875 293.492188 C 373.914062 294.519531 376.984375 296.078125 379.378906 297.242188 C 381.613281 298.335938 384.996094 300.042969 388.714844 303.210938 C 390.230469 304.507812 392.113281 306.121094 393.976562 308.664062 C 395.507812 310.773438 397.507812 314.089844 398.578125 318.476562 C 401.800781 331.78125 393.679688 344.175781 390.734375 348.683594 C 369.816406 380.636719 256.679688 447.25 189.628906 516.394531 C 172.554688 534 160.433594 549.753906 151.382812 570.269531 C 130.953125 616.582031 138.257812 659.472656 140.164062 669.351562 C 152.542969 733.582031 199.179688 768.363281 209.964844 776 C 242.839844 739.242188 271.929688 711.1875 293.402344 691.597656 C 347.761719 642.042969 418.605469 587.253906 418.605469 587.253906 C 418.605469 587.253906 473.007812 543.269531 494.300781 500.628906 Z M 494.316406 500.613281 "/>
</g>
</svg>
