<svg version="1.1" id="Layer_1" xmlns="http://www.w3.org/2000/svg" xmlns:xlink="http://www.w3.org/1999/xlink" x="0px" y="0px"
	 width="100%" viewBox="0 0 400 400" enable-background="new 0 0 400 400" xml:space="preserve">
<path fill="#000000" opacity="1.000000" stroke="none" 
	d="
M263.826965,200.282166 
	C251.994095,202.403793 240.483017,201.144562 229.022476,201.316483 
	C212.475815,201.564713 201.369614,212.390579 201.348862,228.841248 
	C201.319870,251.831024 201.337326,274.820892 201.353867,297.810699 
	C201.360641,307.231110 201.362518,305.349579 193.992020,305.358429 
	C163.672165,305.394836 133.352219,305.380981 103.032318,305.378021 
	C96.106056,305.377319 95.942734,305.250427 95.946404,298.480011 
	C95.964455,265.162140 95.979179,231.844208 96.069069,198.526474 
	C96.089081,191.110992 97.059097,190.614990 103.842674,193.877975 
	C144.387100,213.380280 193.600082,187.442947 200.652557,142.855072 
	C204.439941,118.910103 219.737411,102.127045 242.208237,97.263695 
	C273.918884,90.400597 304.384338,114.810013 305.504333,147.236328 
	C306.312622,170.638290 290.649506,194.254837 263.826965,200.282166 
z"/>
</svg>