<svg viewBox="0 0 1892 388" xmlns="http://www.w3.org/2000/svg" xml:space="preserve" style="fill-rule:evenodd;clip-rule:evenodd;stroke-linejoin:round;stroke-miterlimit:2"><path d="M693.8 630.2 631 425.7h-49.7l-62.8 204.5L456 425.7h-57l91 298h46.2L606 508.1l69.7 215.6H722l91-298h-56.8l-62.4 204.5ZM1217.1 477.4h153.4l-168.9 237.1v9.2h252.3V672h-160.4l168.7-236.8v-9.5h-245.1v51.7ZM1086.8 457.4c-25.7-26.6-60.5-40.6-101.4-40.6-86.9 0-152.2 68.2-152.2 158.5s65.3 158.5 152.2 158.5c40.9 0 75.8-13.9 101.4-40.3v33.6h58.3V422.9h-58.3v34.5Zm-95.4 221.3c-57.4 0-98.9-43.4-98.9-103.7 0-59.9 41.5-103.3 98.9-103.3 57.1 0 98.6 43.4 98.6 103.3s-41.5 103.7-98.6 103.7ZM1733.8 594.4c0 53.6-29.5 84-80.8 84s-81.1-30.7-81.1-84V422.9h-58.3v176.2c0 99.2 75.1 134.4 139.5 134.4 64 0 139.2-35.2 139.2-134.4V422.9H1734v171.5h-.2ZM2129.4 526.2c-1.6-12-4.8-24.4-9.5-37.1-4.4-12.7-11.4-24.4-20-35.2-8.9-10.8-20-19.3-33.9-26-13.9-6.7-31.4-9.8-52-9.8-26.9 0-49.8 5.7-68.8 17.4-11.7 7-21.6 15.8-29.8 26.3V346.2H1864V724h58.3V568.7c0-17.8 1.9-32.6 6-45 4.1-12.4 9.5-22.2 16.2-29.8 7-7.6 14.9-13 24.1-16.5 9.2-3.5 19-5.1 29.2-5.1 15.8 0 28.5 3.2 38.4 9.5 9.8 6.3 17.4 14.9 22.8 25.4 5.4 10.5 9.2 21.9 11.1 33.9 1.9 12.4 2.9 24.1 2.9 35.8v146.4h58.3V557.9c.7-8.9 0-19.6-1.9-31.7Z" style="fill-rule:nonzero" transform="translate(-399 -346.2)"/><circle cx="2243.2" cy="682.8" r="46.9" style="fill:#3585f9" transform="translate(-399 -346.2)"/></svg>